 <svg
                  xmlns="http://www.w3.org/2000/svg"
                  width="30"
                  height="34"
                  viewBox="0 0 48 48"
                >
                  <path
                    d="M39.1613 8.83796C38.1107 7.78953 36.6871 7.20048 35.2028 7.19995H12.7957C11.3115 7.19995 9.88795 7.78958 8.8384 8.83913C7.78885 9.88869 7.19922 11.3122 7.19922 12.7965V35.2036C7.19922 36.6878 7.78885 38.1113 8.8384 39.1609C9.88795 40.2104 11.3115 40.8001 12.7957 40.8001H35.2028C36.6871 40.8001 38.1106 40.2104 39.1602 39.1609C40.2097 38.1113 40.7993 36.6878 40.7993 35.2036V12.7965C40.7988 11.3122 40.2098 9.88864 39.1613 8.83796ZM10.4227 10.4235C11.0523 9.79396 11.9054 9.43913 12.7957 9.43646H35.2028C36.0931 9.43923 36.9461 9.79412 37.5757 10.4236C38.2052 11.0532 38.5601 11.9062 38.5628 12.7965V16.1565H9.43573V12.7965C9.4384 11.9062 9.79323 11.0531 10.4227 10.4235ZM37.5758 37.5766C36.9462 38.2061 36.0931 38.5609 35.2028 38.5636H12.7957C11.9055 38.5608 11.0524 38.2059 10.4229 37.5764C9.79339 36.9469 9.4385 36.0938 9.43573 35.2036V18.4035H38.5628V35.2036C38.5602 36.0939 38.2053 36.947 37.5758 37.5766Z"
                    fill="white"
                  ></path>
                  <path
                    d="M21.533 29.4389C22.1657 28.8142 22.5984 28.0154 22.7761 27.1442C22.9537 26.2729 22.8683 25.3685 22.5306 24.5459C22.193 23.7233 21.6183 23.0197 20.8798 22.5245C20.1412 22.0293 19.2721 21.7649 18.3829 21.7649C17.4937 21.7649 16.6246 22.0293 15.8861 22.5245C15.1475 23.0197 14.5729 23.7233 14.2353 24.5459C13.8976 25.3685 13.8122 26.2729 13.9898 27.1442C14.1675 28.0154 14.6002 28.8142 15.2329 29.4389C14.4789 29.9549 13.8626 30.6476 13.438 31.4566C13.0134 32.2656 12.7933 33.1663 12.7969 34.0799C12.7969 34.3779 12.9153 34.6637 13.126 34.8744C13.3367 35.0851 13.6225 35.2034 13.9204 35.2034C14.2184 35.2034 14.5042 35.0851 14.7149 34.8744C14.9256 34.6637 15.0439 34.3779 15.0439 34.0799C15.0439 33.1888 15.3979 32.3342 16.0281 31.704C16.6582 31.0739 17.5128 30.7199 18.4039 30.7199C19.2951 30.7199 20.1497 31.0739 20.7798 31.704C21.41 32.3342 21.764 33.1888 21.764 34.0799C21.7488 34.2359 21.7665 34.3933 21.8158 34.542C21.8651 34.6907 21.945 34.8275 22.0503 34.9435C22.1556 35.0596 22.284 35.1523 22.4273 35.2157C22.5706 35.2791 22.7255 35.3119 22.8822 35.3119C23.0389 35.3119 23.1938 35.2791 23.3371 35.2157C23.4804 35.1523 23.6088 35.0596 23.7141 34.9435C23.8194 34.8275 23.8993 34.6907 23.9486 34.542C23.9979 34.3933 24.0156 34.2359 24.0005 34.0799C24.0015 33.1633 23.777 32.2604 23.3467 31.4511C22.9164 30.6417 22.2935 29.9507 21.533 29.4389ZM16.1569 26.2364C16.1569 25.792 16.2887 25.3576 16.5356 24.988C16.7825 24.6185 17.1335 24.3305 17.544 24.1604C17.9546 23.9904 18.4064 23.9459 18.8423 24.0326C19.2782 24.1193 19.6786 24.3333 19.9928 24.6475C20.3071 24.9618 20.5211 25.3622 20.6078 25.798C20.6945 26.2339 20.65 26.6857 20.4799 27.0963C20.3098 27.5069 20.0218 27.8578 19.6523 28.1047C19.2828 28.3516 18.8484 28.4834 18.4039 28.4834C17.808 28.4834 17.2365 28.2467 16.8151 27.8253C16.3937 27.4039 16.1569 26.8323 16.1569 26.2364ZM27.3605 25.1234H30.7205C31.0185 25.1234 31.3042 25.005 31.5149 24.7943C31.7256 24.5836 31.844 24.2979 31.844 23.9999C31.844 23.7019 31.7256 23.4162 31.5149 23.2055C31.3042 22.9948 31.0185 22.8764 30.7205 22.8764H27.3605C27.0625 22.8764 26.7767 22.9948 26.566 23.2055C26.3553 23.4162 26.237 23.7019 26.237 23.9999C26.237 24.2979 26.3553 24.5836 26.566 24.7943C26.7767 25.005 27.0625 25.1234 27.3605 25.1234ZM34.0805 27.3599H27.3605C27.2045 27.3448 27.0471 27.3624 26.8984 27.4118C26.7497 27.4611 26.6129 27.5409 26.4969 27.6463C26.3809 27.7516 26.2881 27.88 26.2247 28.0232C26.1613 28.1665 26.1285 28.3215 26.1285 28.4782C26.1285 28.6349 26.1613 28.7898 26.2247 28.9331C26.2881 29.0763 26.3809 29.2048 26.4969 29.3101C26.6129 29.4154 26.7497 29.4953 26.8984 29.5446C27.0471 29.5939 27.2045 29.6115 27.3605 29.5964H34.0805C34.2365 29.6115 34.3938 29.5939 34.5426 29.5446C34.6913 29.4953 34.8281 29.4154 34.9441 29.3101C35.0601 29.2048 35.1528 29.0763 35.2163 28.9331C35.2797 28.7898 35.3125 28.6349 35.3125 28.4782C35.3125 28.3215 35.2797 28.1665 35.2163 28.0232C35.1528 27.88 35.0601 27.7516 34.9441 27.6463C34.8281 27.5409 34.6913 27.4611 34.5426 27.4118C34.3938 27.3624 34.2365 27.3448 34.0805 27.3599ZM34.0805 31.8434H27.3605C27.2045 31.8283 27.0471 31.846 26.8984 31.8953C26.7497 31.9446 26.6129 32.0245 26.4969 32.1298C26.3809 32.2351 26.2881 32.3635 26.2247 32.5068C26.1613 32.65 26.1285 32.805 26.1285 32.9617C26.1285 33.1184 26.1613 33.2733 26.2247 33.4166C26.2881 33.5599 26.3809 33.6883 26.4969 33.7936C26.6129 33.8989 26.7497 33.9788 26.8984 34.0281C27.0471 34.0774 27.2045 34.0951 27.3605 34.0799H34.0805C34.2365 34.0951 34.3938 34.0774 34.5426 34.0281C34.6913 33.9788 34.8281 33.8989 34.9441 33.7936C35.0601 33.6883 35.1528 33.5599 35.2163 33.4166C35.2797 33.2733 35.3125 33.1184 35.3125 32.9617C35.3125 32.805 35.2797 32.65 35.2163 32.5068C35.1528 32.3635 35.0601 32.2351 34.9441 32.1298C34.8281 32.0245 34.6913 31.9446 34.5426 31.8953C34.3938 31.846 34.2365 31.8283 34.0805 31.8434Z"
                    fill="white"
                  ></path>
                </svg>