 <svg
                  xmlns="http://www.w3.org/2000/svg"
                  width="30"
                  height="34"
                  viewBox="0 0 48 48"
                >
                  <path
                    d="M34.1474 43.2H13.8526C13.0189 43.2016 12.1931 43.0373 11.4224 42.7166C10.6518 42.3959 9.95139 41.925 9.36134 41.331C8.7713 40.7369 8.30318 40.0312 7.98379 39.2545C7.6644 38.4777 7.5 37.645 7.5 36.8041V11.1961C7.50315 9.49872 8.17383 7.8719 9.36482 6.67277C10.5558 5.47363 12.1698 4.80016 13.8526 4.80016H29.5079C30.3414 4.79517 31.1675 4.95819 31.9376 5.27965C32.7078 5.60112 33.4065 6.07455 33.9928 6.67215L38.6323 11.3521C39.2247 11.9442 39.6949 12.6488 40.0155 13.4254C40.3361 14.2019 40.5007 15.0349 40.5 15.8761V36.8041C40.4968 38.5015 39.8262 40.1283 38.6352 41.3274C37.4442 42.5266 35.8302 43.2 34.1474 43.2ZM13.8526 7.35615C13.3522 7.35457 12.8565 7.45281 12.3939 7.64523C11.9313 7.83764 11.5111 8.12043 11.1573 8.47732C10.8035 8.83422 10.5231 9.25816 10.3324 9.72477C10.1416 10.1914 10.0442 10.6914 10.0458 11.1961V36.8041C10.0442 37.3088 10.1416 37.8088 10.3324 38.2754C10.5231 38.742 10.8035 39.166 11.1573 39.5229C11.5111 39.8798 11.9313 40.1626 12.3939 40.355C12.8565 40.5474 13.3522 40.6456 13.8526 40.6441H34.1474C35.1561 40.6409 36.1225 40.2353 36.8358 39.5158C37.549 38.7964 37.9511 37.8215 37.9542 36.8041V15.8761C37.9463 14.8726 37.5491 13.912 36.8479 13.2001L32.2084 8.52015C31.4914 7.7989 30.5205 7.39335 29.5079 7.39215L13.8526 7.35615Z"
                    fill="#031339"
                  ></path>
                  <path
                    d="M33.7779 34.6202L31.1369 31.9202C32.2956 30.3763 32.9222 28.4926 32.9213 26.5562C32.9213 24.7848 32.401 23.0532 31.4261 21.5798C30.4513 20.1065 29.0655 18.9576 27.4438 18.2781C25.8221 17.5986 24.0371 17.4189 22.3143 17.7619C20.5915 18.1049 19.008 18.955 17.7638 20.2051C16.5196 21.4551 15.6705 23.049 15.3236 24.7854C14.9767 26.5219 15.1476 28.3231 15.8147 29.9617C16.4818 31.6002 17.6152 33.0027 19.0719 33.992C20.5286 34.9813 22.2432 35.513 23.9992 35.5202C25.9152 35.5211 27.7788 34.8889 29.3049 33.7202L31.9815 36.4202C32.0989 36.5402 32.2387 36.6356 32.3929 36.7007C32.5471 36.7658 32.7125 36.7993 32.8797 36.7993C33.0468 36.7993 33.2123 36.7658 33.3665 36.7007C33.5207 36.6356 33.6605 36.5402 33.7779 36.4202C33.8966 36.3028 33.9909 36.1628 34.0552 36.0083C34.1196 35.8537 34.1528 35.6878 34.1528 35.5202C34.1528 35.3525 34.1196 35.1866 34.0552 35.032C33.9909 34.8775 33.8966 34.7375 33.7779 34.6202ZM23.9992 32.9642C22.7423 32.9665 21.5129 32.5927 20.4667 31.8901C19.4204 31.1874 18.6044 30.1874 18.1217 29.0167C17.6391 27.846 17.5116 26.5572 17.7554 25.3134C17.9991 24.0696 18.6032 22.9267 19.4912 22.0293C20.3791 21.1319 21.511 20.5205 22.7436 20.2722C23.9762 20.024 25.2541 20.1502 26.4156 20.6348C27.577 21.1195 28.5699 21.9408 29.2684 22.9949C29.967 24.0489 30.3399 25.2883 30.3399 26.5562C30.3399 28.2536 29.6722 29.8817 28.4834 31.0831C27.2947 32.2845 25.6819 32.961 23.9992 32.9642Z"
                    fill="#031339"
                  ></path>
                </svg>
 